<?xml version="1.0" encoding="utf-8"?>
<!-- Generator: Adobe Illustrator 16.0.0, SVG Export Plug-In . SVG Version: 6.00 Build 0)  -->
<!DOCTYPE svg PUBLIC "-//W3C//DTD SVG 1.1//EN" "http://www.w3.org/Graphics/SVG/1.1/DTD/svg11.dtd">
<svg version="1.1" id="Calque_1" xmlns="http://www.w3.org/2000/svg" xmlns:xlink="http://www.w3.org/1999/xlink" x="0px" y="0px"
	 width="595.28px" height="841.89px" viewBox="0 0 595.28 841.89" style="enable-background:new 0 0 595.28 841.89;"
	 xml:space="preserve">
<style type="text/css">
<![CDATA[
	.st0{fill-rule:evenodd;clip-rule:evenodd; fill: rgba(18, 18, 18, .2); stroke: rgba(250, 250, 250, 1);}
]]>
</style>
<g>
	<path class="st0" d="M57.706,132.272c3.05-4.633-2.246-9.29,0.036-14.678c1.342,2.397,2.368,4.228,3.957,7.065
		c1.764-3.207,3.235-5.547,4.392-8.037c3.126-6.739,7.796-11.871,13.319-17.013c6.867-6.391,11.821-14.943,17.07-22.911
		c2.11-3.205,0.981-7.313,0.221-11.079c-1.255-6.218,0.806-8.25,7.061-7.249c0.869,0.141,1.694,0.603,2.562,0.697
		c4.924,0.545,9.398,4.697,14.727,1.913c9.002-4.707,19.224-8.021,23.84-18.227c2.634-5.828,8.749-6.339,12.901-9.76
		c11.521-6.899,24.144-10.986,37.02-14.376c1.904-0.502,4.365-1.245,5.878-0.488c8.585,4.288,9.783-2.321,11.981-7.661
		c0.329-0.798,0.892-1.494,1.561-2.586c2.517,2.846,1.994,6.908,4.676,9.284c1.169,1.041,2.249,2.442,3.961,2.028
		c2.134-0.518,1.459-2.501,1.439-3.91c-0.045-3.169,0.183-6.269,1.859-9.024c1.832-3.02,3.511-7.313,7.362-1.624
		c1.238,1.825,3.087,1.529,4.83,0.987c2.121-0.662,4.194-1.471,6.284-2.228c6.127-2.216,10.822-0.555,16.553,1.5
		c8.391,3.011,17.417,6.055,26.371,1.443c3.852-1.984,7.607-3.29,12.036-3.163c4.121,0.117,6.896,0.65,6.692,5.813
		c-0.102,2.658,9.56,8.747,11.979,7.776c3.388-1.358,2.315-3.901,0.799-5.971c-1.166-1.583-2.815-2.821-4.296-4.159
		c-1.284-1.16-2.637-2.246-4.111-3.491c7.55-2.514,10.863-1.047,13.617,5.752c3.771,9.313,14.855,16.517,24.479,15.86
		c4.648-0.315,6.31-3.755,7.304-7.528c0.92-3.491,2.077-4.867,5.795-2.631c4.336,2.601,7.292,0.942,9.398-3.702
		c2.769-6.096,5.386-6.479,9.797-1.558c2.951,3.287,5.618,6.938,7.817,10.766c2.944,5.127,6.873,7.224,12.695,6.057
		c4.803-0.96,9.114,1.25,10.54,5.278c3.837,10.84,13.078,13.781,22.332,17.073c4.863,1.549,8.347,4.083,7.826,9.977
		c-0.217,2.508,0.348,4.15,3.228,1.63c1.559-1.366,2.762,0.699,3.978,1.433c11.884,7.173,19.817,18.402,28.763,28.531
		c1.9,2.154,5.576,5.517-0.718,8.884c-2.729,1.464,1.1,5.792,4.085,5.911c6.706,0.271,10.609,4.544,14.014,9.073
		c5.409,7.198,11.286,14.129,12.588,23.796c0.989,7.337,8.961,9.367,13.182,14.356c9.509,18.16,12.15,37.741,12.072,57.9
		c-0.029,7.405,2.193,13.682,6.006,20.448c4.147,7.362,4.352,16.957,6.187,25.598c1.327,6.249,0.152,12.959,3.476,18.843
		c0.428,3.221-0.767,6.059-1.923,8.971c-2.596,6.529-4.224,13.15-0.799,19.959c0.837,1.661,1.27,3.914,0.255,5.154
		c-6.614,8.113-4.084,18.34-6.673,27.344c-0.812,2.823-0.748,6.011-4.599,7.344c-2.222,0.771-2.808,3.58-1.579,5.779
		c4.743,8.475,5.75,18.088,8.532,27.154c1.871,6.688,0.548,12.377-3.981,17.921c-4.312,5.27-5.83,11.133-3.239,18.521
		c4.546,12.99,1.429,26.348-0.627,39.509c-1.707-2.885-2.643-5.978-2.552-9.353c-0.495-7.337-2.081-14.443-3.723-21.738
		c-2.95,1.01-3.321,2.997-3.906,4.83c-3.504,3.949-6.718,8.409-13.824,7.461c4.703-6.742,8.614-13.362,8.136-21.491
		c1.806-10.517,1.842-21.11,1.345-31.725c2.382-25.592-11.246-31.202-26.677-33.584c-9.715-1.502-19.468-0.842-29.212-0.979
		c-35.97,0.289-71.446,4.513-106.08,14.389c-21.048,5.997-23.594,11.071-16.999,31.906c3.553,11.23,7.983,22.183,11.503,33.422
		c3.133,10.015,9.963,15.515,19.691,17.979c22.483,5.704,45.31,6.389,68.28,4.282c10.736-0.98,21.45-2.247,32.294-2.7
		c-4.318,3.509-9.479,4.167-14.583,4.77c-25.003,2.944-50.079,4.645-75.275,4.061c-0.89-0.021-1.822-0.095-2.667,0.114
		c-16.458,4.135-26.651-3.535-34.074-17.423c-4.927-9.215-10.667-17.995-16.042-26.972c-0.342-0.573-0.635-1.177-0.972-1.752
		c-4.89-8.312-12.218-12.037-21.768-11.44c-8.656,0.542-10.69,7.566-13.418,13.875c-2.289,2.974-4.166,6.165-5.142,9.827
		c-3.343,4.558-5.651,9.572-6.696,15.143l-0.008-0.023c-1.331,0.415-1.471,1.471-1.42,2.629l0.017-0.025
		c-1.18,0.479-1.424,1.489-1.48,2.605c-1.505,2.654-3.223,5.214-4.47,7.988c-2.89,6.422-6.828,11.632-14.026,13.523
		c-15.207,1.335-30.417,2.675-45.624,4.015c-16.844-0.366-33.644,1.331-50.539,0.115c-17.326-1.249-34.326-3.995-51.233-7.713
		c-4.432-0.972-8.17-3.346-11.979-5.612c-6.586-5.421-7.396-14.221-12.219-22.509c-3.132,9.565-3.548,17.875-4.455,26.099
		c-3.716,12.245-0.822,24.622-0.68,36.942c0.029,2.552,1.572,4.542,2.797,6.665c2.355,4.076,0.266,5.764-3.646,6.001
		c-1.499,0.091-3.108-0.25-4.542-0.749c-11.56-4.049-17.064-23.074-9.829-32.843c3.477-4.69,9.225-7.938,9.781-14.595
		c1.083-6.496-0.317-12.16-4.775-17.271c-7.418-8.498-8.027-20.027-2.015-29.949c1.067-1.762,1.698-3.677,1.314-5.719
		c-1.611-8.583-0.587-17.274-1.167-25.897c1.818-4,0.289-7.514-1.552-12.116c-2.295,4.064-4.313,7.121-5.183,10.787
		c-2.071,1.624-3.512,1.15-4.361-1.305c-1.56-4.676-2.128-9.476-2.354-14.403c-0.75-16.43-4.96-31.828-13.919-45.826
		c-3.408-5.324-8.109-10.886,0.085-16.491c1.573-1.078,1.092-3.78,0.589-5.729c-2.21-8.596-4.517-17.167-6.79-25.747
		c-0.604-3.038-0.708-6.287-1.898-9.073c-5.371-12.59-2.265-24.555,2.094-36.523c0.985-2.704,2.529-5.511,2.465-8.242
		c-0.284-12.043,0.623-23.935,3.075-35.723c0.15-0.726-0.174-1.548-0.297-2.485c-3.425,0.833-2.7,4.761-5.697,6.059
		c-2.71-3.732-1.869-7.396,0.287-10.865c2.345-3.775,4.585-7.761,7.627-10.929C53.762,152.549,56.049,142.59,57.706,132.272z
		 M435.099,329.394c-8.993,1.257-17.188,4.837-25.451,8.705c15.337,5.325,31.02,3.123,46.551,3.123
		c7.102,0.74,14.208,0.347,21.269-0.322c2.477-0.236,6.463,1.053,7.237-1.465c0.932-3.015-1.204-6.359-3.314-9.023
		c-2.242-2.821-5.465-4.378-8.791-3.865c-5.118,0.789-10.193-0.31-15.255,0.392C449.698,325.674,442.345,327.052,435.099,329.394z
		 M161.502,338.985c-6.155,0.282-12.326,0.375-18.463,0.9c-5.533,0.474-8.524,4.132-10.185,9.168
		c-1.325,4.017-0.944,6.309,4.241,5.894c14.775-1.179,29.572-2.09,44.36-3.105c8.856-0.958,18.163,0.268,27.004-5.453
		c-5.742-1.637-10.548-3.326-15.492-4.349C182.608,339.9,172.3,336.786,161.502,338.985z M495.589,333.68
		c3.583,3.18,5.054,8.615,10.351,9.923c2.667,0.657,7.015,1.136,5.516-2.968c-4.498-12.334-6.299-25.304-10.033-37.784
		c0.623-6.387-3.446-12.878-0.626-18.962c2.522-5.441,2.188-10.051-0.223-15.178c-2.017-4.28-2.345-8.756-1.159-13.57
		c2.977-12.04-0.238-23.408-7.118-32.954c-4.781-6.636-10.258-12.293-9.611-21.135c-5.548-11.986-15.927-19.501-25.856-27.284
		c-2.831-2.221-4.314-5.5-7.539-7.31c-16.466-9.242-33.604-16.729-52.131-20.762c-16.925-2.774-33.976-2.892-51.076-3.4
		c-12.936-0.388-23.573,4.621-33.585,10.77c-15.9,9.77-33.609,11.733-50.644,9.829c-14.103-1.577-28.579-3.268-42.634-6.588
		c-4.786-1.129-10.216-1.465-14.954,1.457c-0.219-0.039-0.462-0.159-0.654-0.103c-19.751,5.723-36.253,17.491-53.57,27.962
		c-10.984,6.642-18.361,16.403-27.142,24.999c-12.044,10.113-18.911,22.756-19.085,38.734c-0.073,6.36,0.467,12.794-2.673,18.784
		c-0.656,1.245-0.606,3.118-0.292,4.573c2.458,11.337,3.729,22.779,3.533,34.379c2.919,13.585,1.743,26.829-3.02,39.863
		c-1.424,3.899-0.336,7.94,3.058,10.096c3.943,2.502,6.877-0.478,9.687-3.291c8.589-8.606,13.13-19.986,20.462-29.436
		c9.779-7.102,20.468-12.208,32.77-10.453c8.093,1.156,15.927,1.051,23.812-0.379c6.199-1.124,12.328-1.223,18.509-0.184
		c8.948,2.517,18.026,4.647,26.81,7.642c11.7,3.992,20.25,12.489,26.802,22.466c2.722,4.146,4.616,8.396,9.418,10.407
		c8.374,4.011,15.104,11.011,24.376,13.373c9.855,4.932,19.929,3.873,28.44-1.922c13.058-8.887,27.455-14.497,41.894-20.265
		c1.83-0.732,5.164-0.983,3.585-4.235c-1.265-2.611-0.939-7.046-6.158-6.269c-8.193,1.222-14.686-2.197-20.035-8.182
		c0.482-2.441,0.865-5.416,4.299-4.542c3.764,0.956,8.994,6.357,7.687-3.526c-0.028-0.202,1.517-0.67,2.358-0.919
		c4.134-1.23,7.502-3.732,10.935-6.23c5.667-4.118,11.821-7.164,19.104-6.793c2.759,0.138,5.268-0.682,7.795-1.543
		c8.02-1.512,15.786-2.854,24.29-1.896c13.283,1.5,26.036,4.313,38.788,8.118c6.332,1.886,13.025,2.537,18.867,6
		c5.894,6.117,12.817,11.629,11.284,21.722c-0.215,1.399-0.415,4.685,2.869,3.821c3.029-0.799,1.314-3.128,0.969-4.919
		C494.555,334.968,495.07,334.325,495.589,333.68z M256.462,367.683c-8.651,0.066-17.227-0.696-25.759-2.149
		c-10.029-1.704-20.018-3.802-30.28-3.51c-19.838-2.055-39.369,1.769-59.021,3.155c-10.158,0.715-20.407,1.335-30.37,3.269
		c-7.598,1.474-13.833,5.917-14.959,14.738c-1.289,1.791-0.788,3.85-0.771,5.791c0.148,16.66,2.848,32.915,7.199,48.998
		c1.974,7.312,6.013,11.552,13.366,12.797c1.235,0.486,2.447,1.043,3.706,1.447c24.085,7.736,48.698,9.18,73.657,5.993
		c14.921-1.9,30.238-0.98,44.767-5.568c15.281-4.83,28.906-11.867,33.212-29.289c1.516-2.922,2.649-5.962,2.906-9.278
		c1.61-2.463,1.447-5.394,2.131-8.1c0.801-4.004,2.091-7.944,1.586-12.122C281.757,374.768,271.133,367.736,256.462,367.683z"/>
	<path class="st0" d="M405.014,757.797c0.809,2.473,2.638,4.014,4.719,5.407c3.525,2.362,6.468,2.936,8.224-2.02
		c0.907-2.547,1.773-4.324,4.945-1.5c2.998,2.667,4.725-0.352,6.876-2.531c8.182-8.28,16.714-16.216,25.505-24.656
		c2.664,6.108,0.177,10.351-2.472,14.472c-9.337,14.525-21.125,26.953-33.411,38.95c-4.629,4.518-9.354,8.883-9.172,16.289
		c0.075,3.039-2.789,4.341-5.416,5.189c-26.086,8.454-50.211,21.554-75.493,31.907c-10.156,4.158-20.11,3.701-29.339-2.259
		c-7.65-4.946-14.972-10.416-22.284-15.865c-5.091-3.792-10.428-6.776-16.865-7.368c-1.23-1.267-2.883-2.325-3.623-3.83
		c-3.351-6.834-8.643-10.214-15.578-13.842c-9.958-5.209-20.089-11.829-27.201-21.172c-6.9-9.065-15.204-16.788-22.69-25.279
		c-7.242-8.219-11.834-17.03-11.563-28.197c0.121-5.033-1.182-9.678-5.841-12.745c-1.032-0.675-1.693-2.011-2.343-3.147
		c-0.645-1.135-1.51-2.61-0.418-3.686c1.536-1.509,2.84,0.082,3.979,0.977c2.989,2.341,5.767,4.885,7.526,8.367
		c1.008,1.991,2.164,4.51,4.331,4.872c14.482,2.423,20.487,16.182,31.498,23.214c8.948,5.712,17.905,10.886,29.178,8.796
		c1.715-0.318,3.899-0.655,5.266,0.104c8.975,4.966,16.083-0.404,23.559-3.879c4.617-2.144,8.37-5.817,13.535-7.102
		c2.479-0.62,3.724-3.187,3.668-5.838c-0.06-2.814-2.579-3.935-4.571-4.108c-7.236-0.623-14.289-1.158-21.133-4.357
		c-4.456-2.081-9.282,2.115-15.828,1.601c6.237-6.397,6.791-13.025,4.088-20.186c-0.975-2.579,1.341-3.508,3.235-4.15
		c3.759-1.278,3.951-3.005,1.088-5.577c-1.839-1.647-2.581-3.887-0.973-5.946c1.661-2.128,3.777-1.496,5.941-0.26
		c4.147,2.374,7.723-0.005,11.288-1.77c5.956-2.946,11.656-6.709,18.89-4.368c1.801,0.581,3.446-0.721,4.822-1.848
		c4.818-3.931,10.38-4.149,15.804-2.336c4.995,1.673,9.892,2.263,15.06,1.81c7.787-0.681,15.004,1.257,21.743,5.114
		c4.657,2.667,9.459,4.963,14.829,5.799c5.096,0.797,4.893,3.43,2.384,6.84c-1.876,2.555-4.39,4.364-7.061,6.029
		c-8.908,5.556-12.095,13.763-11.122,23.964c0.862,9.03,6.954,13.458,14.39,16.755c2.844,1.262,5.66,2.725,8.643,3.512
		c4.773,1.266,7.989,3.874,10.393,8.269c3.062,5.594,6.355,5.346,9.257-0.371c1.166-2.296,1.777-4.868,2.808-7.799
		C401.829,750.621,402.187,755.129,405.014,757.797z"/>
	<path class="st0" d="M278.229,655.816c-3.25-2.705-4.662-7.559-9.618-5.016c-1.369,0.699-3.128,1.186-2.391,3.301
		c1.918,5.494-2.156,4.815-5.058,4.648c-6.492-0.37-12.647-2.41-18.723-4.59c-4.765-1.712-7.634-0.674-8.614,4.748
		c-1.354,7.488-8.548,5.675-13.241,7.472c-4.112,1.571-6.549-1.87-7.918-5.383c-3.07-7.873-2.576-15.374,3.539-21.689
		c7.261-7.493,14.987-13.32,26.752-11.714c6.675,0.916,13.532-1.26,20.005-4.158c14.15-6.327,28.511-10.42,44.548-6.711
		c8.14,1.885,13.107,4.857,13.495,13.318c0.804,0.096,1.524,0.305,1.595,0.169c4.608-8.614,11.475-8.636,19.764-6.014
		c6.592,2.086,13.103-1.154,19.607-2.243c3.57-0.601,7.488-1.841,10.37,0.412c8.28,6.484,18.313,6.052,27.765,7.988
		c1.724,0.355,3.599,0.564,5.077,1.409c3.229,1.843,6.143,4.482,4.638,8.569c-1.559,4.246-5.404,3.277-8.566,2.178
		c-12.81-4.464-26.229-4.398-39.481-5.614c-9.599-0.887-18.106,4.154-27.446,4.959c-13.912,1.194-28.024,1.112-41.514,5.593
		c-0.929,0.305-2.152-0.284-3.242-0.437C281.798,645.937,279.698,647.428,278.229,655.816z"/>
	<path class="st0" d="M272.112,537.015c-5.257,0.078-10.56,1.007-15.157-2.996c-3.675-3.203-7.442-6.464-5.467-11.698
		c1.937-5.131,6.409-7.836,11.962-8.024c7.024-0.243,13.452,2.303,19.828,4.852c2.049,0.819,4.13,1.71,5.937,2.947
		c2.599,1.776,7.463,2.279,6.997,5.993c-0.425,3.392-4.415,5.164-7.773,6.582C283.179,536.895,277.639,536.825,272.112,537.015z"/>
	<path class="st0" d="M363.051,530.074c-8.457-0.54-15.989-0.997-23.516-1.521c-1.728-0.121-3.857-0.047-4.505-2.025
		c-0.515-1.582,0.895-2.896,1.893-4.046c4.624-5.347,24.277-9.84,30.743-6.926c4.068,1.83,7.681,4.831,6.612,9.617
		C372.778,531.913,366.743,529.785,363.051,530.074z"/>
	<path class="st0" d="M504.149,435.33c-6.861,6.452-15.063,8.368-24.218,7.077C488.006,440.05,496.075,437.688,504.149,435.33z"/>
	<path class="st0" d="M279.239,440.636c0.056-1.116,0.3-2.127,1.48-2.605"/>
	<path class="st0" d="M280.702,438.056c-0.051-1.158,0.089-2.214,1.42-2.629"/>
	<path class="st0" d="M49.242,453.272c-5.751-6.33-5.684-12.876-5.156-19.434c0.208-2.6,1.495-5.024,1.305-7.794
		c-0.155-2.259-0.929-5.132,2.475-6.042c2.634-0.701,4.755,0.342,6.659,2.098c2.164,1.991,3.201,4.176,1.662,7.06
		c-1.565,2.935-3.046,5.911-4.53,8.887C49.459,442.449,49.201,447.251,49.242,453.272z"/>
	<path class="st0" d="M563.088,407.11c-1.1,2.619-0.268,7.944-4.226,7.861c-3.438-0.07-5.923-4.22-6.055-8.438
		c-0.115-3.815,2.977-6.385,5.49-6.527C561.418,399.83,563.1,403.218,563.088,407.11z"/>
	<path class="st0" d="M494.036,335.613c-0.664-1.02-1.62-2.185-0.228-3.135c0.738-0.502,1.473,0.355,1.78,1.204
		C495.07,334.325,494.555,334.968,494.036,335.613z"/>
</g>
</svg>
